M48
; DRILL file {KiCad 8.0.1} date 2024-04-22T16:58:15+0200
; FORMAT={-:-/ absolute / metric / decimal}
; #@! TF.CreationDate,2024-04-22T16:58:15+02:00
; #@! TF.GenerationSoftware,Kicad,Pcbnew,8.0.1
; #@! TF.FileFunction,Plated,1,4,PTH
FMAT,2
METRIC
; #@! TA.AperFunction,Plated,PTH,ViaDrill
T1C0.300
; #@! TA.AperFunction,Plated,PTH,ComponentDrill
T2C0.400
; #@! TA.AperFunction,Plated,PTH,ComponentDrill
T3C0.600
; #@! TA.AperFunction,Plated,PTH,ComponentDrill
T4C0.800
; #@! TA.AperFunction,Plated,PTH,ComponentDrill
T5C0.900
; #@! TA.AperFunction,Plated,PTH,ComponentDrill
T6C1.000
; #@! TA.AperFunction,Plated,PTH,ComponentDrill
T7C1.020
%
G90
G05
T1
X68.0Y-50.5
X68.0Y-51.75
X68.0Y-53.0
X68.0Y-54.25
X68.0Y-57.75
X68.0Y-59.0
X68.0Y-60.25
X68.0Y-61.5
X69.25Y-50.5
X69.25Y-51.75
X69.25Y-53.0
X69.25Y-54.25
X69.25Y-57.75
X69.25Y-59.0
X69.25Y-60.25
X69.25Y-61.5
X70.5Y-50.5
X70.5Y-51.75
X70.5Y-53.0
X70.5Y-54.25
X70.5Y-59.0
X70.5Y-60.25
X70.5Y-61.5
X71.75Y-50.5
X71.75Y-51.75
X71.75Y-60.25
X71.75Y-61.5
X73.0Y-50.5
X73.0Y-51.75
X73.0Y-60.25
X73.0Y-61.5
X74.25Y-48.0
X74.25Y-49.25
X74.25Y-50.5
X74.25Y-51.75
X74.25Y-53.0
X74.25Y-54.25
X74.25Y-55.5
X74.25Y-56.5
X74.25Y-57.75
X74.25Y-59.0
X74.25Y-60.25
X74.25Y-61.5
X75.5Y-48.0
X75.5Y-49.25
X75.5Y-50.5
X75.5Y-51.75
X75.5Y-53.0
X75.5Y-54.25
X75.5Y-55.5
X75.5Y-56.5
X75.5Y-57.75
X75.5Y-59.0
X75.5Y-60.25
X75.5Y-61.5
X76.75Y-48.0
X76.75Y-49.25
X76.75Y-50.5
X76.75Y-51.75
X76.75Y-53.0
X76.75Y-59.0
X76.75Y-60.25
X76.75Y-61.5
X78.0Y-48.0
X78.0Y-49.25
X78.0Y-50.5
X78.0Y-51.75
X78.0Y-53.0
X78.0Y-59.0
X78.0Y-60.25
X78.0Y-61.5
X79.25Y-48.0
X79.25Y-49.25
X79.25Y-50.5
X79.25Y-51.75
X79.25Y-53.0
X79.25Y-54.25
X79.25Y-55.5
X79.25Y-56.5
X79.25Y-57.75
X79.25Y-59.0
X79.25Y-60.25
X79.25Y-61.5
X80.5Y-48.0
X80.5Y-49.25
X80.5Y-50.5
X80.5Y-56.5
X80.5Y-57.75
X80.5Y-59.0
X80.5Y-60.25
X80.5Y-61.5
X81.75Y-48.0
X81.75Y-49.25
X81.75Y-50.5
X81.75Y-56.5
X81.75Y-57.75
X81.75Y-60.25
X81.75Y-61.5
X83.0Y-48.0
X83.0Y-49.25
X83.0Y-56.5
X83.0Y-57.75
X83.0Y-60.25
X83.0Y-61.5
X84.25Y-48.0
X84.25Y-49.25
X84.25Y-50.5
X84.8Y-60.2
X84.8Y-60.9
X84.8Y-61.6
X85.3Y-49.6
X85.5Y-60.2
X85.5Y-60.9
X85.5Y-61.6
X86.2Y-60.2
X86.2Y-60.9
X86.2Y-61.6
X89.4Y-54.5
X89.4Y-55.7
X89.5Y-50.3
X89.5Y-51.1
X89.7Y-52.6
X90.6Y-46.9
X90.6Y-47.8
X90.6Y-52.6
X90.65Y-54.45
X90.65Y-55.7
X91.9Y-46.95
X91.9Y-48.2
X91.9Y-49.45
X91.9Y-52.7
X91.9Y-54.4
X91.9Y-55.7
X93.15Y-46.95
X93.15Y-48.2
X93.15Y-49.45
X93.15Y-55.7
X93.2Y-50.7
X93.2Y-51.95
X93.2Y-53.2
X93.2Y-54.4
X94.4Y-46.95
X94.4Y-48.2
X94.4Y-49.45
X94.4Y-50.7
X94.4Y-51.95
X94.4Y-53.2
X94.4Y-54.45
X94.4Y-55.7
X98.0Y-65.0
X98.254Y-61.164
X98.75Y-50.5
X101.75Y-50.75
X102.5Y-57.75
T2
X100.41Y-57.9
X100.41Y-59.5
X100.41Y-60.3
X100.41Y-61.1
X100.41Y-61.9
X100.41Y-63.5
X101.11Y-58.3
X101.11Y-59.1
X101.11Y-59.9
X101.11Y-61.5
X101.11Y-62.3
X101.11Y-63.1
T3
X85.407Y-75.995
X101.0Y-56.57
X101.207Y-75.995
X105.4Y-56.21
X105.4Y-65.19
T4
X77.2Y-54.7
X77.2Y-57.2
T5
X87.642Y-70.145
X87.642Y-75.215
X88.912Y-72.685
X90.182Y-70.145
X90.182Y-76.485
X91.453Y-72.685
X92.722Y-70.145
X93.992Y-72.685
X95.262Y-70.145
X96.532Y-72.685
X96.532Y-76.485
X97.802Y-70.145
X99.072Y-72.685
X99.072Y-75.215
T6
X68.525Y-42.775
X71.065Y-42.775
X78.792Y-42.775
X81.332Y-42.775
X89.058Y-42.775
X91.598Y-42.775
X99.325Y-42.775
X101.865Y-42.775
T7
X72.25Y-53.46
X72.25Y-56.0
X72.25Y-58.54
X72.25Y-81.79
X72.25Y-84.33
X86.718Y-83.105
X89.257Y-83.105
X97.457Y-83.105
X99.998Y-83.105
T3
X100.8Y-64.83G85X101.2Y-64.83
G05
M30
